<mxfile host="app.diagrams.net" agent="Mozilla/5.0 (X11; Linux x86_64) AppleWebKit/537.36 (KHTML, like Gecko) Chrome/119.0.0.0 Safari/537.36" version="27.0.9">
  <diagram name="Page-1" id="R3bCdzVFe6UQYCtHxcdk">
    <mxGraphModel dx="1346" dy="791" grid="1" gridSize="10" guides="1" tooltips="1" connect="1" arrows="1" fold="1" page="1" pageScale="1" pageWidth="827" pageHeight="1169" background="#ffffff" math="0" shadow="0">
      <root>
        <mxCell id="0" />
        <mxCell id="1" parent="0" />
        <mxCell id="_FhQHC4IQKlcwRoFgU1F-1" value="Cloud" style="ellipse;shape=cloud;whiteSpace=wrap;html=1;" vertex="1" parent="1">
          <mxGeometry x="325" y="318" width="90" height="50" as="geometry" />
        </mxCell>
        <mxCell id="_FhQHC4IQKlcwRoFgU1F-2" value="Router" style="rounded=1;whiteSpace=wrap;html=1;" vertex="1" parent="1">
          <mxGeometry x="335" y="384" width="80" height="30" as="geometry" />
        </mxCell>
        <mxCell id="_FhQHC4IQKlcwRoFgU1F-3" value="" style="endArrow=none;html=1;rounded=0;" edge="1" parent="1">
          <mxGeometry width="50" height="50" relative="1" as="geometry">
            <mxPoint x="160" y="430" as="sourcePoint" />
            <mxPoint x="600" y="430" as="targetPoint" />
          </mxGeometry>
        </mxCell>
        <mxCell id="_FhQHC4IQKlcwRoFgU1F-4" value="Router &amp;amp; PoE Switch" style="rounded=1;whiteSpace=wrap;html=1;" vertex="1" parent="1">
          <mxGeometry x="170" y="447" width="140" height="30" as="geometry" />
        </mxCell>
        <mxCell id="_FhQHC4IQKlcwRoFgU1F-5" value="Boot Server&lt;div&gt;(Tofu)&lt;/div&gt;" style="rounded=0;whiteSpace=wrap;html=1;" vertex="1" parent="1">
          <mxGeometry x="185" y="517" width="110" height="40" as="geometry" />
        </mxCell>
        <mxCell id="_FhQHC4IQKlcwRoFgU1F-6" value="" style="endArrow=none;html=1;rounded=0;" edge="1" parent="1">
          <mxGeometry width="50" height="50" relative="1" as="geometry">
            <mxPoint x="160" y="492" as="sourcePoint" />
            <mxPoint x="600" y="492" as="targetPoint" />
          </mxGeometry>
        </mxCell>
        <mxCell id="_FhQHC4IQKlcwRoFgU1F-7" value="Rpi" style="whiteSpace=wrap;html=1;aspect=fixed;" vertex="1" parent="1">
          <mxGeometry x="338" y="517" width="40" height="40" as="geometry" />
        </mxCell>
        <mxCell id="_FhQHC4IQKlcwRoFgU1F-8" value="Rpi" style="whiteSpace=wrap;html=1;aspect=fixed;" vertex="1" parent="1">
          <mxGeometry x="399" y="517" width="40" height="40" as="geometry" />
        </mxCell>
        <mxCell id="_FhQHC4IQKlcwRoFgU1F-12" value="..." style="text;html=1;align=center;verticalAlign=middle;whiteSpace=wrap;rounded=0;" vertex="1" parent="1">
          <mxGeometry x="502" y="522" width="60" height="30" as="geometry" />
        </mxCell>
        <mxCell id="_FhQHC4IQKlcwRoFgU1F-13" value="" style="endArrow=none;html=1;rounded=0;exitX=0.5;exitY=0;exitDx=0;exitDy=0;entryX=0.5;entryY=1;entryDx=0;entryDy=0;" edge="1" parent="1" source="_FhQHC4IQKlcwRoFgU1F-5" target="_FhQHC4IQKlcwRoFgU1F-4">
          <mxGeometry width="50" height="50" relative="1" as="geometry">
            <mxPoint x="390" y="642" as="sourcePoint" />
            <mxPoint x="240" y="480" as="targetPoint" />
          </mxGeometry>
        </mxCell>
        <mxCell id="_FhQHC4IQKlcwRoFgU1F-14" value="" style="endArrow=none;html=1;rounded=0;entryX=0.5;entryY=0;entryDx=0;entryDy=0;" edge="1" parent="1" target="_FhQHC4IQKlcwRoFgU1F-7">
          <mxGeometry width="50" height="50" relative="1" as="geometry">
            <mxPoint x="358" y="492" as="sourcePoint" />
            <mxPoint x="440" y="592" as="targetPoint" />
          </mxGeometry>
        </mxCell>
        <mxCell id="_FhQHC4IQKlcwRoFgU1F-15" value="" style="endArrow=none;html=1;rounded=0;entryX=0.5;entryY=0;entryDx=0;entryDy=0;" edge="1" parent="1" target="_FhQHC4IQKlcwRoFgU1F-8">
          <mxGeometry width="50" height="50" relative="1" as="geometry">
            <mxPoint x="420" y="492" as="sourcePoint" />
            <mxPoint x="368" y="547" as="targetPoint" />
          </mxGeometry>
        </mxCell>
        <mxCell id="_FhQHC4IQKlcwRoFgU1F-18" value="Rpi" style="whiteSpace=wrap;html=1;aspect=fixed;" vertex="1" parent="1">
          <mxGeometry x="460" y="516" width="40" height="40" as="geometry" />
        </mxCell>
        <mxCell id="_FhQHC4IQKlcwRoFgU1F-19" value="" style="endArrow=none;html=1;rounded=0;entryX=0.5;entryY=0;entryDx=0;entryDy=0;" edge="1" target="_FhQHC4IQKlcwRoFgU1F-18" parent="1">
          <mxGeometry width="50" height="50" relative="1" as="geometry">
            <mxPoint x="480" y="491" as="sourcePoint" />
            <mxPoint x="440" y="546" as="targetPoint" />
          </mxGeometry>
        </mxCell>
        <mxCell id="_FhQHC4IQKlcwRoFgU1F-20" value="Rpi" style="whiteSpace=wrap;html=1;aspect=fixed;" vertex="1" parent="1">
          <mxGeometry x="558" y="518" width="40" height="40" as="geometry" />
        </mxCell>
        <mxCell id="_FhQHC4IQKlcwRoFgU1F-21" value="" style="endArrow=none;html=1;rounded=0;entryX=0.5;entryY=0;entryDx=0;entryDy=0;" edge="1" target="_FhQHC4IQKlcwRoFgU1F-20" parent="1">
          <mxGeometry width="50" height="50" relative="1" as="geometry">
            <mxPoint x="578" y="493" as="sourcePoint" />
            <mxPoint x="516" y="548" as="targetPoint" />
          </mxGeometry>
        </mxCell>
        <mxCell id="_FhQHC4IQKlcwRoFgU1F-22" value="" style="endArrow=none;html=1;rounded=0;entryX=0.55;entryY=0.95;entryDx=0;entryDy=0;entryPerimeter=0;exitX=0.5;exitY=0;exitDx=0;exitDy=0;" edge="1" parent="1" source="_FhQHC4IQKlcwRoFgU1F-2" target="_FhQHC4IQKlcwRoFgU1F-1">
          <mxGeometry width="50" height="50" relative="1" as="geometry">
            <mxPoint x="390" y="694" as="sourcePoint" />
            <mxPoint x="440" y="644" as="targetPoint" />
          </mxGeometry>
        </mxCell>
        <mxCell id="_FhQHC4IQKlcwRoFgU1F-23" value="" style="endArrow=none;html=1;rounded=0;entryX=0.5;entryY=1;entryDx=0;entryDy=0;" edge="1" parent="1" target="_FhQHC4IQKlcwRoFgU1F-2">
          <mxGeometry width="50" height="50" relative="1" as="geometry">
            <mxPoint x="375" y="430" as="sourcePoint" />
            <mxPoint x="375" y="660" as="targetPoint" />
          </mxGeometry>
        </mxCell>
        <mxCell id="_FhQHC4IQKlcwRoFgU1F-24" value="" style="endArrow=none;html=1;rounded=0;exitX=0.5;exitY=0;exitDx=0;exitDy=0;" edge="1" parent="1" source="_FhQHC4IQKlcwRoFgU1F-4">
          <mxGeometry width="50" height="50" relative="1" as="geometry">
            <mxPoint x="390" y="670" as="sourcePoint" />
            <mxPoint x="240" y="430" as="targetPoint" />
          </mxGeometry>
        </mxCell>
        <mxCell id="_FhQHC4IQKlcwRoFgU1F-26" value="" style="shape=flexArrow;endArrow=classic;startArrow=classic;html=1;rounded=0;exitX=0.5;exitY=1;exitDx=0;exitDy=0;" edge="1" parent="1" source="_FhQHC4IQKlcwRoFgU1F-7">
          <mxGeometry width="100" height="100" relative="1" as="geometry">
            <mxPoint x="360" y="532" as="sourcePoint" />
            <mxPoint x="358" y="612" as="targetPoint" />
          </mxGeometry>
        </mxCell>
        <mxCell id="_FhQHC4IQKlcwRoFgU1F-27" value="" style="shape=flexArrow;endArrow=classic;startArrow=classic;html=1;rounded=0;exitX=0.5;exitY=1;exitDx=0;exitDy=0;" edge="1" parent="1">
          <mxGeometry width="100" height="100" relative="1" as="geometry">
            <mxPoint x="420" y="557" as="sourcePoint" />
            <mxPoint x="420" y="612" as="targetPoint" />
          </mxGeometry>
        </mxCell>
        <mxCell id="_FhQHC4IQKlcwRoFgU1F-28" value="" style="shape=flexArrow;endArrow=classic;startArrow=classic;html=1;rounded=0;exitX=0.5;exitY=1;exitDx=0;exitDy=0;" edge="1" parent="1">
          <mxGeometry width="100" height="100" relative="1" as="geometry">
            <mxPoint x="480" y="557" as="sourcePoint" />
            <mxPoint x="480" y="612" as="targetPoint" />
          </mxGeometry>
        </mxCell>
        <mxCell id="_FhQHC4IQKlcwRoFgU1F-29" value="" style="shape=flexArrow;endArrow=classic;startArrow=classic;html=1;rounded=0;exitX=0.5;exitY=1;exitDx=0;exitDy=0;" edge="1" parent="1">
          <mxGeometry width="100" height="100" relative="1" as="geometry">
            <mxPoint x="579" y="557" as="sourcePoint" />
            <mxPoint x="579" y="612" as="targetPoint" />
          </mxGeometry>
        </mxCell>
        <mxCell id="_FhQHC4IQKlcwRoFgU1F-32" value="Sensors &amp;amp; actuators for IoT application" style="text;html=1;align=center;verticalAlign=middle;whiteSpace=wrap;rounded=0;" vertex="1" parent="1">
          <mxGeometry x="335" y="609" width="260" height="30" as="geometry" />
        </mxCell>
        <mxCell id="_FhQHC4IQKlcwRoFgU1F-33" value="Local LAN" style="text;html=1;align=center;verticalAlign=middle;whiteSpace=wrap;rounded=0;" vertex="1" parent="1">
          <mxGeometry x="510" y="466" width="60" height="30" as="geometry" />
        </mxCell>
      </root>
    </mxGraphModel>
  </diagram>
</mxfile>
